<svg width="802" height="802" viewBox="0 0 802 802" fill="none" xmlns="http://www.w3.org/2000/svg">
  <defs>
    <!-- Board background gradient -->
    <linearGradient id="boardBg" x1="0" y1="0" x2="802" y2="802" gradientUnits="userSpaceOnUse">
      <stop offset="0%" stop-color="#1a1a2e"/>
      <stop offset="50%" stop-color="#16213e"/>
      <stop offset="100%" stop-color="#0f3460"/>
    </linearGradient>

    <!-- Board border gradient -->
    <linearGradient id="borderGrad" x1="0" y1="0" x2="802" y2="802" gradientUnits="userSpaceOnUse">
      <stop offset="0%" stop-color="#FFD700"/>
      <stop offset="50%" stop-color="#FFA500"/>
      <stop offset="100%" stop-color="#FFD700"/>
    </linearGradient>

    <!-- Green zone gradient -->
    <linearGradient id="greenGrad" x1="0" y1="0" x2="1" y2="1">
      <stop offset="0%" stop-color="#00e676"/>
      <stop offset="100%" stop-color="#00695c"/>
    </linearGradient>
    <!-- Green zone gradient (for safe cells) -->
    <linearGradient id="greenCellGrad" x1="0" y1="0" x2="1" y2="1">
      <stop offset="0%" stop-color="#43a047"/>
      <stop offset="100%" stop-color="#1b5e20"/>
    </linearGradient>

    <!-- Red zone gradient -->
    <linearGradient id="redGrad" x1="0" y1="0" x2="1" y2="1">
      <stop offset="0%" stop-color="#ff5252"/>
      <stop offset="100%" stop-color="#b71c1c"/>
    </linearGradient>
    <linearGradient id="redCellGrad" x1="0" y1="0" x2="1" y2="1">
      <stop offset="0%" stop-color="#e53935"/>
      <stop offset="100%" stop-color="#7f0000"/>
    </linearGradient>

    <!-- Blue zone gradient -->
    <linearGradient id="blueGrad" x1="0" y1="0" x2="1" y2="1">
      <stop offset="0%" stop-color="#40c4ff"/>
      <stop offset="100%" stop-color="#01579b"/>
    </linearGradient>
    <linearGradient id="blueCellGrad" x1="0" y1="0" x2="1" y2="1">
      <stop offset="0%" stop-color="#1e88e5"/>
      <stop offset="100%" stop-color="#0d47a1"/>
    </linearGradient>

    <!-- Yellow zone gradient -->
    <linearGradient id="yellowGrad" x1="0" y1="0" x2="1" y2="1">
      <stop offset="0%" stop-color="#ffee58"/>
      <stop offset="100%" stop-color="#f57f17"/>
    </linearGradient>
    <linearGradient id="yellowCellGrad" x1="0" y1="0" x2="1" y2="1">
      <stop offset="0%" stop-color="#fdd835"/>
      <stop offset="100%" stop-color="#e65100"/>
    </linearGradient>

    <!-- White cell gradient -->
    <linearGradient id="whiteCell" x1="0" y1="0" x2="1" y2="1">
      <stop offset="0%" stop-color="#f5f5f5"/>
      <stop offset="100%" stop-color="#bdbdbd"/>
    </linearGradient>

    <!-- Center star gradient -->
    <radialGradient id="centerGrad" cx="50%" cy="50%" r="50%">
      <stop offset="0%" stop-color="#fff176"/>
      <stop offset="40%" stop-color="#FFD700"/>
      <stop offset="100%" stop-color="#e65100"/>
    </radialGradient>

    <!-- Piece glow effects -->
    <filter id="glow" x="-30%" y="-30%" width="160%" height="160%">
      <feGaussianBlur stdDeviation="3" result="blur"/>
      <feMerge>
        <feMergeNode in="blur"/>
        <feMergeNode in="SourceGraphic"/>
      </feMerge>
    </filter>

    <filter id="dropShadow" x="-20%" y="-20%" width="140%" height="140%">
      <feDropShadow dx="2" dy="2" stdDeviation="3" flood-color="#000000" flood-opacity="0.5"/>
    </filter>

    <filter id="innerGlow" x="-10%" y="-10%" width="120%" height="120%">
      <feGaussianBlur in="SourceAlpha" stdDeviation="4" result="blur"/>
      <feOffset dx="0" dy="0" result="offsetBlur"/>
      <feComposite in="SourceGraphic" in2="offsetBlur" operator="over"/>
    </filter>

    <!-- Zone home area gradients -->
    <radialGradient id="greenHomeGrad" cx="50%" cy="50%" r="60%">
      <stop offset="0%" stop-color="#69f0ae"/>
      <stop offset="60%" stop-color="#00c853"/>
      <stop offset="100%" stop-color="#1b5e20"/>
    </radialGradient>
    <radialGradient id="redHomeGrad" cx="50%" cy="50%" r="60%">
      <stop offset="0%" stop-color="#ff8a80"/>
      <stop offset="60%" stop-color="#ff1744"/>
      <stop offset="100%" stop-color="#7f0000"/>
    </radialGradient>
    <radialGradient id="blueHomeGrad" cx="50%" cy="50%" r="60%">
      <stop offset="0%" stop-color="#82b1ff"/>
      <stop offset="60%" stop-color="#2979ff"/>
      <stop offset="100%" stop-color="#0d47a1"/>
    </radialGradient>
    <radialGradient id="yellowHomeGrad" cx="50%" cy="50%" r="60%">
      <stop offset="0%" stop-color="#ffff8d"/>
      <stop offset="60%" stop-color="#ffea00"/>
      <stop offset="100%" stop-color="#e65100"/>
    </radialGradient>

    <!-- Piece gradients - 3D effect -->
    <radialGradient id="greenPieceGrad" cx="35%" cy="30%" r="60%">
      <stop offset="0%" stop-color="#b9f6ca"/>
      <stop offset="50%" stop-color="#00e676"/>
      <stop offset="100%" stop-color="#1b5e20"/>
    </radialGradient>
    <radialGradient id="redPieceGrad" cx="35%" cy="30%" r="60%">
      <stop offset="0%" stop-color="#ffd7d7"/>
      <stop offset="50%" stop-color="#ff5252"/>
      <stop offset="100%" stop-color="#7f0000"/>
    </radialGradient>
    <radialGradient id="bluePieceGrad" cx="35%" cy="30%" r="60%">
      <stop offset="0%" stop-color="#bbdefb"/>
      <stop offset="50%" stop-color="#40c4ff"/>
      <stop offset="100%" stop-color="#0d47a1"/>
    </radialGradient>
    <radialGradient id="yellowPieceGrad" cx="35%" cy="30%" r="60%">
      <stop offset="0%" stop-color="#fffde7"/>
      <stop offset="50%" stop-color="#ffee58"/>
      <stop offset="100%" stop-color="#e65100"/>
    </radialGradient>

    <!-- Track cell gradient -->
    <linearGradient id="trackCell" x1="0" y1="0" x2="1" y2="1">
      <stop offset="0%" stop-color="#eceff1"/>
      <stop offset="100%" stop-color="#90a4ae"/>
    </linearGradient>

    <!-- Pattern for texture -->
    <pattern id="noise" x="0" y="0" width="4" height="4" patternUnits="userSpaceOnUse">
      <rect width="4" height="4" fill="none"/>
      <circle cx="1" cy="1" r="0.5" fill="rgba(255,255,255,0.03)"/>
      <circle cx="3" cy="3" r="0.5" fill="rgba(255,255,255,0.03)"/>
    </pattern>
  </defs>

  <!-- ===== BOARD BACKGROUND ===== -->
  <rect x="1" y="1" width="800" height="800" rx="16" fill="url(#boardBg)"/>
  <rect x="1" y="1" width="800" height="800" rx="16" fill="url(#noise)"/>

  <!-- Golden border -->
  <rect x="1" y="1" width="800" height="800" rx="16" fill="none" stroke="url(#borderGrad)" stroke-width="4"/>
  <!-- Inner border -->
  <rect x="8" y="8" width="786" height="786" rx="12" fill="none" stroke="rgba(255,215,0,0.3)" stroke-width="1.5"/>

  <!-- ===== HOME ZONES (large 300x300 corners) ===== -->
  <!-- Green Home (top-left) -->
  <rect x="26" y="26" width="300" height="300" rx="14" fill="url(#greenHomeGrad)" filter="url(#dropShadow)"/>
  <rect x="26" y="26" width="300" height="300" rx="14" fill="none" stroke="#00e676" stroke-width="3"/>
  <!-- Green Home inner area (diamond) -->
  <rect x="28.8284" y="176" width="208.132" height="208.132" rx="10" transform="rotate(-45 28.8284 176)" fill="rgba(0,0,0,0.25)" stroke="#00e676" stroke-width="2"/>

  <!-- Red Home (top-right) -->
  <rect x="476" y="26" width="300" height="300" rx="14" fill="url(#redHomeGrad)" filter="url(#dropShadow)"/>
  <rect x="476" y="26" width="300" height="300" rx="14" fill="none" stroke="#ff5252" stroke-width="3"/>
  <!-- Red Home inner area (diamond) -->
  <rect x="478.828" y="176" width="208.132" height="208.132" rx="10" transform="rotate(-45 478.828 176)" fill="rgba(0,0,0,0.25)" stroke="#ff5252" stroke-width="2"/>

  <!-- Yellow Home (bottom-left) -->
  <rect x="26" y="476" width="300" height="300" rx="14" fill="url(#yellowHomeGrad)" filter="url(#dropShadow)"/>
  <rect x="26" y="476" width="300" height="300" rx="14" fill="none" stroke="#ffee58" stroke-width="3"/>
  <!-- Yellow Home inner area (diamond) -->
  <rect x="28.8284" y="626" width="208.132" height="208.132" rx="10" transform="rotate(-45 28.8284 626)" fill="rgba(0,0,0,0.25)" stroke="#ffee58" stroke-width="2"/>

  <!-- Blue Home (bottom-right) -->
  <rect x="476" y="476" width="300" height="300" rx="14" fill="url(#blueHomeGrad)" filter="url(#dropShadow)"/>
  <rect x="476" y="476" width="300" height="300" rx="14" fill="none" stroke="#40c4ff" stroke-width="3"/>
  <!-- Blue Home inner area (diamond) -->
  <rect x="478.828" y="626" width="208.132" height="208.132" rx="10" transform="rotate(-45 478.828 626)" fill="rgba(0,0,0,0.25)" stroke="#40c4ff" stroke-width="2"/>

  <!-- ===== TRACK CELLS ===== -->

  <!-- === BOTTOM TRACK (yellow side) - rotated -90 === -->
  <rect x="326" y="776" width="300" height="150" rx="10" transform="rotate(-90 326 776)" fill="none" stroke="rgba(255,255,255,0.2)" stroke-width="2"/>
  <!-- White cells -->
  <rect x="326" y="776" width="50" height="50" rx="8" transform="rotate(-90 326 776)" fill="url(#trackCell)" stroke="rgba(255,255,255,0.4)" stroke-width="1.5" filter="url(#dropShadow)"/>
  <rect x="426" y="526" width="50" height="50" rx="8" transform="rotate(-90 426 526)" fill="url(#trackCell)" stroke="rgba(255,255,255,0.4)" stroke-width="1.5" filter="url(#dropShadow)"/>
  <rect x="426" y="576" width="50" height="50" rx="8" transform="rotate(-90 426 576)" fill="url(#trackCell)" stroke="rgba(255,255,255,0.4)" stroke-width="1.5" filter="url(#dropShadow)"/>
  <rect x="426" y="626" width="50" height="50" rx="8" transform="rotate(-90 426 626)" fill="url(#trackCell)" stroke="rgba(255,255,255,0.4)" stroke-width="1.5" filter="url(#dropShadow)"/>
  <rect x="426" y="726" width="50" height="50" rx="8" transform="rotate(-90 426 726)" fill="url(#trackCell)" stroke="rgba(255,255,255,0.4)" stroke-width="1.5" filter="url(#dropShadow)"/>
  <rect x="426" y="776" width="50" height="50" rx="8" transform="rotate(-90 426 776)" fill="url(#trackCell)" stroke="rgba(255,255,255,0.4)" stroke-width="1.5" filter="url(#dropShadow)"/>
  <rect x="376" y="776" width="50" height="50" rx="8" transform="rotate(-90 376 776)" fill="url(#trackCell)" stroke="rgba(255,255,255,0.4)" stroke-width="1.5" filter="url(#dropShadow)"/>
  <rect x="326" y="576" width="50" height="50" rx="8" transform="rotate(-90 326 576)" fill="url(#trackCell)" stroke="rgba(255,255,255,0.4)" stroke-width="1.5" filter="url(#dropShadow)"/>
  <rect x="326" y="526" width="50" height="50" rx="8" transform="rotate(-90 326 526)" fill="url(#trackCell)" stroke="rgba(255,255,255,0.4)" stroke-width="1.5" filter="url(#dropShadow)"/>
  <rect x="326" y="626" width="50" height="50" rx="8" transform="rotate(-90 326 626)" fill="url(#trackCell)" stroke="rgba(255,255,255,0.4)" stroke-width="1.5" filter="url(#dropShadow)"/>
  <rect x="326" y="676" width="50" height="50" rx="8" transform="rotate(-90 326 676)" fill="url(#trackCell)" stroke="rgba(255,255,255,0.4)" stroke-width="1.5" filter="url(#dropShadow)"/>
  <!-- Yellow colored cells -->
  <rect x="326" y="726" width="50" height="50" rx="8" transform="rotate(-90 326 726)" fill="url(#yellowCellGrad)" stroke="#FFD700" stroke-width="2" filter="url(#dropShadow)"/>
  <rect x="376" y="726" width="50" height="50" rx="8" transform="rotate(-90 376 726)" fill="url(#yellowCellGrad)" stroke="#FFD700" stroke-width="2" filter="url(#dropShadow)"/>
  <rect x="376" y="676" width="50" height="50" rx="8" transform="rotate(-90 376 676)" fill="url(#yellowCellGrad)" stroke="#FFD700" stroke-width="2" filter="url(#dropShadow)"/>
  <rect x="376" y="626" width="50" height="50" rx="8" transform="rotate(-90 376 626)" fill="url(#yellowCellGrad)" stroke="#FFD700" stroke-width="2" filter="url(#dropShadow)"/>
  <rect x="376" y="576" width="50" height="50" rx="8" transform="rotate(-90 376 576)" fill="url(#yellowCellGrad)" stroke="#FFD700" stroke-width="2" filter="url(#dropShadow)"/>
  <rect x="376" y="526" width="50" height="50" rx="8" transform="rotate(-90 376 526)" fill="url(#yellowCellGrad)" stroke="#FFD700" stroke-width="2" filter="url(#dropShadow)"/>
  <!-- Blue entry cell on bottom track -->
  <rect x="426" y="676" width="50" height="50" rx="8" transform="rotate(-90 426 676)" fill="url(#blueCellGrad)" stroke="#40c4ff" stroke-width="2" filter="url(#dropShadow)"/>

  <!-- === LEFT TRACK (green side) === -->
  <rect x="26" y="326" width="300" height="150" rx="10" fill="none" stroke="rgba(255,255,255,0.2)" stroke-width="2"/>
  <!-- White cells -->
  <rect x="26" y="326" width="50" height="50" rx="8" fill="url(#trackCell)" stroke="rgba(255,255,255,0.4)" stroke-width="1.5" filter="url(#dropShadow)"/>
  <rect x="276" y="426" width="50" height="50" rx="8" fill="url(#trackCell)" stroke="rgba(255,255,255,0.4)" stroke-width="1.5" filter="url(#dropShadow)"/>
  <rect x="226" y="426" width="50" height="50" rx="8" fill="url(#trackCell)" stroke="rgba(255,255,255,0.4)" stroke-width="1.5" filter="url(#dropShadow)"/>
  <rect x="176" y="426" width="50" height="50" rx="8" fill="url(#trackCell)" stroke="rgba(255,255,255,0.4)" stroke-width="1.5" filter="url(#dropShadow)"/>
  <rect x="76" y="426" width="50" height="50" rx="8" fill="url(#trackCell)" stroke="rgba(255,255,255,0.4)" stroke-width="1.5" filter="url(#dropShadow)"/>
  <rect x="26" y="426" width="50" height="50" rx="8" fill="url(#trackCell)" stroke="rgba(255,255,255,0.4)" stroke-width="1.5" filter="url(#dropShadow)"/>
  <rect x="26" y="376" width="50" height="50" rx="8" fill="url(#trackCell)" stroke="rgba(255,255,255,0.4)" stroke-width="1.5" filter="url(#dropShadow)"/>
  <rect x="226" y="326" width="50" height="50" rx="8" fill="url(#trackCell)" stroke="rgba(255,255,255,0.4)" stroke-width="1.5" filter="url(#dropShadow)"/>
  <rect x="276" y="326" width="50" height="50" rx="8" fill="url(#trackCell)" stroke="rgba(255,255,255,0.4)" stroke-width="1.5" filter="url(#dropShadow)"/>
  <rect x="176" y="326" width="50" height="50" rx="8" fill="url(#trackCell)" stroke="rgba(255,255,255,0.4)" stroke-width="1.5" filter="url(#dropShadow)"/>
  <rect x="126" y="326" width="50" height="50" rx="8" fill="url(#trackCell)" stroke="rgba(255,255,255,0.4)" stroke-width="1.5" filter="url(#dropShadow)"/>
  <!-- Green colored cells -->
  <rect x="276" y="376" width="50" height="50" rx="8" fill="url(#greenCellGrad)" stroke="#00e676" stroke-width="2" filter="url(#dropShadow)"/>
  <rect x="226" y="376" width="50" height="50" rx="8" fill="url(#greenCellGrad)" stroke="#00e676" stroke-width="2" filter="url(#dropShadow)"/>
  <rect x="176" y="376" width="50" height="50" rx="8" fill="url(#greenCellGrad)" stroke="#00e676" stroke-width="2" filter="url(#dropShadow)"/>
  <rect x="76" y="376" width="50" height="50" rx="8" fill="url(#greenCellGrad)" stroke="#00e676" stroke-width="2" filter="url(#dropShadow)"/>
  <rect x="76" y="326" width="50" height="50" rx="8" fill="url(#greenCellGrad)" stroke="#00e676" stroke-width="2" filter="url(#dropShadow)"/>
  <rect x="126" y="376" width="50" height="50" rx="8" fill="url(#greenCellGrad)" stroke="#00e676" stroke-width="2" filter="url(#dropShadow)"/>
  <!-- Yellow entry cell on left track -->
  <rect x="126" y="426" width="50" height="50" rx="8" fill="url(#yellowCellGrad)" stroke="#FFD700" stroke-width="2" filter="url(#dropShadow)"/>

  <!-- === TOP TRACK (red side) - rotated 90 === -->
  <rect x="476" y="26" width="300" height="150" rx="10" transform="rotate(90 476 26)" fill="none" stroke="rgba(255,255,255,0.2)" stroke-width="2"/>
  <!-- White cells -->
  <rect x="476" y="26" width="50" height="50" rx="8" transform="rotate(90 476 26)" fill="url(#trackCell)" stroke="rgba(255,255,255,0.4)" stroke-width="1.5" filter="url(#dropShadow)"/>
  <rect x="376" y="276" width="50" height="50" rx="8" transform="rotate(90 376 276)" fill="url(#trackCell)" stroke="rgba(255,255,255,0.4)" stroke-width="1.5" filter="url(#dropShadow)"/>
  <rect x="376" y="226" width="50" height="50" rx="8" transform="rotate(90 376 226)" fill="url(#trackCell)" stroke="rgba(255,255,255,0.4)" stroke-width="1.5" filter="url(#dropShadow)"/>
  <rect x="376" y="176" width="50" height="50" rx="8" transform="rotate(90 376 176)" fill="url(#trackCell)" stroke="rgba(255,255,255,0.4)" stroke-width="1.5" filter="url(#dropShadow)"/>
  <rect x="376" y="76" width="50" height="50" rx="8" transform="rotate(90 376 76)" fill="url(#trackCell)" stroke="rgba(255,255,255,0.4)" stroke-width="1.5" filter="url(#dropShadow)"/>
  <rect x="376" y="26" width="50" height="50" rx="8" transform="rotate(90 376 26)" fill="url(#trackCell)" stroke="rgba(255,255,255,0.4)" stroke-width="1.5" filter="url(#dropShadow)"/>
  <rect x="426" y="26" width="50" height="50" rx="8" transform="rotate(90 426 26)" fill="url(#trackCell)" stroke="rgba(255,255,255,0.4)" stroke-width="1.5" filter="url(#dropShadow)"/>
  <rect x="476" y="226" width="50" height="50" rx="8" transform="rotate(90 476 226)" fill="url(#trackCell)" stroke="rgba(255,255,255,0.4)" stroke-width="1.5" filter="url(#dropShadow)"/>
  <rect x="476" y="276" width="50" height="50" rx="8" transform="rotate(90 476 276)" fill="url(#trackCell)" stroke="rgba(255,255,255,0.4)" stroke-width="1.5" filter="url(#dropShadow)"/>
  <rect x="476" y="176" width="50" height="50" rx="8" transform="rotate(90 476 176)" fill="url(#trackCell)" stroke="rgba(255,255,255,0.4)" stroke-width="1.5" filter="url(#dropShadow)"/>
  <rect x="476" y="126" width="50" height="50" rx="8" transform="rotate(90 476 126)" fill="url(#trackCell)" stroke="rgba(255,255,255,0.4)" stroke-width="1.5" filter="url(#dropShadow)"/>
  <!-- Red colored cells -->
  <rect x="476" y="76" width="50" height="50" rx="8" transform="rotate(90 476 76)" fill="url(#redCellGrad)" stroke="#ff5252" stroke-width="2" filter="url(#dropShadow)"/>
  <rect x="426" y="76" width="50" height="50" rx="8" transform="rotate(90 426 76)" fill="url(#redCellGrad)" stroke="#ff5252" stroke-width="2" filter="url(#dropShadow)"/>
  <rect x="426" y="126" width="50" height="50" rx="8" transform="rotate(90 426 126)" fill="url(#redCellGrad)" stroke="#ff5252" stroke-width="2" filter="url(#dropShadow)"/>
  <rect x="426" y="176" width="50" height="50" rx="8" transform="rotate(90 426 176)" fill="url(#redCellGrad)" stroke="#ff5252" stroke-width="2" filter="url(#dropShadow)"/>
  <rect x="426" y="226" width="50" height="50" rx="8" transform="rotate(90 426 226)" fill="url(#redCellGrad)" stroke="#ff5252" stroke-width="2" filter="url(#dropShadow)"/>
  <rect x="426" y="276" width="50" height="50" rx="8" transform="rotate(90 426 276)" fill="url(#redCellGrad)" stroke="#ff5252" stroke-width="2" filter="url(#dropShadow)"/>
  <!-- Green entry cell on top track -->
  <rect x="376" y="126" width="50" height="50" rx="8" transform="rotate(90 376 126)" fill="url(#greenCellGrad)" stroke="#00e676" stroke-width="2" filter="url(#dropShadow)"/>

  <!-- === RIGHT TRACK (blue side) - rotated 180 === -->
  <rect x="776" y="476" width="300" height="150" rx="10" transform="rotate(180 776 476)" fill="none" stroke="rgba(255,255,255,0.2)" stroke-width="2"/>
  <!-- White cells -->
  <rect x="776" y="476" width="50" height="50" rx="8" transform="rotate(180 776 476)" fill="url(#trackCell)" stroke="rgba(255,255,255,0.4)" stroke-width="1.5" filter="url(#dropShadow)"/>
  <rect x="526" y="376" width="50" height="50" rx="8" transform="rotate(180 526 376)" fill="url(#trackCell)" stroke="rgba(255,255,255,0.4)" stroke-width="1.5" filter="url(#dropShadow)"/>
  <rect x="576" y="376" width="50" height="50" rx="8" transform="rotate(180 576 376)" fill="url(#trackCell)" stroke="rgba(255,255,255,0.4)" stroke-width="1.5" filter="url(#dropShadow)"/>
  <rect x="626" y="376" width="50" height="50" rx="8" transform="rotate(180 626 376)" fill="url(#trackCell)" stroke="rgba(255,255,255,0.4)" stroke-width="1.5" filter="url(#dropShadow)"/>
  <rect x="726" y="376" width="50" height="50" rx="8" transform="rotate(180 726 376)" fill="url(#trackCell)" stroke="rgba(255,255,255,0.4)" stroke-width="1.5" filter="url(#dropShadow)"/>
  <rect x="776" y="376" width="50" height="50" rx="8" transform="rotate(180 776 376)" fill="url(#trackCell)" stroke="rgba(255,255,255,0.4)" stroke-width="1.5" filter="url(#dropShadow)"/>
  <rect x="776" y="426" width="50" height="50" rx="8" transform="rotate(180 776 426)" fill="url(#trackCell)" stroke="rgba(255,255,255,0.4)" stroke-width="1.5" filter="url(#dropShadow)"/>
  <rect x="576" y="476" width="50" height="50" rx="8" transform="rotate(180 576 476)" fill="url(#trackCell)" stroke="rgba(255,255,255,0.4)" stroke-width="1.5" filter="url(#dropShadow)"/>
  <rect x="526" y="476" width="50" height="50" rx="8" transform="rotate(180 526 476)" fill="url(#trackCell)" stroke="rgba(255,255,255,0.4)" stroke-width="1.5" filter="url(#dropShadow)"/>
  <rect x="626" y="476" width="50" height="50" rx="8" transform="rotate(180 626 476)" fill="url(#trackCell)" stroke="rgba(255,255,255,0.4)" stroke-width="1.5" filter="url(#dropShadow)"/>
  <rect x="676" y="476" width="50" height="50" rx="8" transform="rotate(180 676 476)" fill="url(#trackCell)" stroke="rgba(255,255,255,0.4)" stroke-width="1.5" filter="url(#dropShadow)"/>
  <!-- Blue colored cells -->
  <rect x="726" y="476" width="50" height="50" rx="8" transform="rotate(180 726 476)" fill="url(#blueCellGrad)" stroke="#40c4ff" stroke-width="2" filter="url(#dropShadow)"/>
  <rect x="726" y="426" width="50" height="50" rx="8" transform="rotate(180 726 426)" fill="url(#blueCellGrad)" stroke="#40c4ff" stroke-width="2" filter="url(#dropShadow)"/>
  <rect x="676" y="426" width="50" height="50" rx="8" transform="rotate(180 676 426)" fill="url(#blueCellGrad)" stroke="#40c4ff" stroke-width="2" filter="url(#dropShadow)"/>
  <rect x="626" y="426" width="50" height="50" rx="8" transform="rotate(180 626 426)" fill="url(#blueCellGrad)" stroke="#40c4ff" stroke-width="2" filter="url(#dropShadow)"/>
  <rect x="576" y="426" width="50" height="50" rx="8" transform="rotate(180 576 426)" fill="url(#blueCellGrad)" stroke="#40c4ff" stroke-width="2" filter="url(#dropShadow)"/>
  <rect x="526" y="426" width="50" height="50" rx="8" transform="rotate(180 526 426)" fill="url(#blueCellGrad)" stroke="#40c4ff" stroke-width="2" filter="url(#dropShadow)"/>
  <!-- Red entry cell on right track -->
  <rect x="676" y="376" width="50" height="50" rx="8" transform="rotate(180 676 376)" fill="url(#redCellGrad)" stroke="#ff5252" stroke-width="2" filter="url(#dropShadow)"/>

  <!-- ===== CENTER STAR (winning zone) ===== -->
  <!-- Background for center -->
  <rect x="326" y="326" width="150" height="150" rx="4" fill="#1a1a2e"/>
  <!-- Star triangles -->
  <path d="M330.044 474.5L400.5 403.135L470.956 474.5H330.044Z" fill="url(#yellowGrad)" filter="url(#dropShadow)"/>
  <path d="M327.5 330.044L398.865 400.5L327.5 470.956V330.044Z" fill="url(#greenGrad)" filter="url(#dropShadow)"/>
  <path d="M470.956 327.5L400.5 398.865L330.044 327.5H470.956Z" fill="url(#redGrad)" filter="url(#dropShadow)"/>
  <path d="M474.5 470.956L403.135 400.5L474.5 330.044V470.956Z" fill="url(#blueGrad)" filter="url(#dropShadow)"/>
  <!-- Center circle -->
  <circle cx="401" cy="401" r="28" fill="url(#centerGrad)" filter="url(#glow)"/>
  <circle cx="401" cy="401" r="20" fill="rgba(0,0,0,0.3)"/>
  <circle cx="401" cy="401" r="12" fill="url(#centerGrad)"/>
  <!-- Star outline highlight -->
  <circle cx="401" cy="401" r="28" fill="none" stroke="rgba(255,255,200,0.6)" stroke-width="1.5"/>

  <!-- ===== PIECES (Home positions) ===== -->

  <!-- Green pieces (top-left home) -->
  <!-- Piece 1 -->
  <rect x="77.5" y="152.5" width="47" height="47" rx="9" fill="url(#greenCellGrad)" stroke="#00e676" stroke-width="2" filter="url(#dropShadow)"/>
  <circle cx="101" cy="176" r="18" fill="url(#greenPieceGrad)" filter="url(#glow)"/>
  <circle cx="101" cy="176" r="18" fill="none" stroke="rgba(255,255,255,0.5)" stroke-width="1"/>
  <circle cx="97" cy="172" r="5" fill="rgba(255,255,255,0.7)"/>

  <!-- Piece 2 -->
  <rect x="152.5" y="77.5" width="47" height="47" rx="9" fill="url(#greenCellGrad)" stroke="#00e676" stroke-width="2" filter="url(#dropShadow)"/>
  <circle cx="176" cy="101" r="18" fill="url(#greenPieceGrad)" filter="url(#glow)"/>
  <circle cx="176" cy="101" r="18" fill="none" stroke="rgba(255,255,255,0.5)" stroke-width="1"/>
  <circle cx="172" cy="97" r="5" fill="rgba(255,255,255,0.7)"/>

  <!-- Piece 3 -->
  <rect x="227.5" y="152.5" width="47" height="47" rx="9" fill="url(#greenCellGrad)" stroke="#00e676" stroke-width="2" filter="url(#dropShadow)"/>
  <circle cx="251" cy="176" r="18" fill="url(#greenPieceGrad)" filter="url(#glow)"/>
  <circle cx="251" cy="176" r="18" fill="none" stroke="rgba(255,255,255,0.5)" stroke-width="1"/>
  <circle cx="247" cy="172" r="5" fill="rgba(255,255,255,0.7)"/>

  <!-- Piece 4 -->
  <rect x="152.5" y="227.5" width="47" height="47" rx="9" fill="url(#greenCellGrad)" stroke="#00e676" stroke-width="2" filter="url(#dropShadow)"/>
  <circle cx="176" cy="251" r="18" fill="url(#greenPieceGrad)" filter="url(#glow)"/>
  <circle cx="176" cy="251" r="18" fill="none" stroke="rgba(255,255,255,0.5)" stroke-width="1"/>
  <circle cx="172" cy="247" r="5" fill="rgba(255,255,255,0.7)"/>

  <!-- Red pieces (top-right home) -->
  <!-- Piece 1 -->
  <rect x="527.5" y="152.5" width="47" height="47" rx="9" fill="url(#redCellGrad)" stroke="#ff5252" stroke-width="2" filter="url(#dropShadow)"/>
  <circle cx="551" cy="176" r="18" fill="url(#redPieceGrad)" filter="url(#glow)"/>
  <circle cx="551" cy="176" r="18" fill="none" stroke="rgba(255,255,255,0.5)" stroke-width="1"/>
  <circle cx="547" cy="172" r="5" fill="rgba(255,255,255,0.7)"/>

  <!-- Piece 2 -->
  <rect x="602.5" y="77.5" width="47" height="47" rx="9" fill="url(#redCellGrad)" stroke="#ff5252" stroke-width="2" filter="url(#dropShadow)"/>
  <circle cx="626" cy="101" r="18" fill="url(#redPieceGrad)" filter="url(#glow)"/>
  <circle cx="626" cy="101" r="18" fill="none" stroke="rgba(255,255,255,0.5)" stroke-width="1"/>
  <circle cx="622" cy="97" r="5" fill="rgba(255,255,255,0.7)"/>

  <!-- Piece 3 -->
  <rect x="677.5" y="152.5" width="47" height="47" rx="9" fill="url(#redCellGrad)" stroke="#ff5252" stroke-width="2" filter="url(#dropShadow)"/>
  <circle cx="701" cy="176" r="18" fill="url(#redPieceGrad)" filter="url(#glow)"/>
  <circle cx="701" cy="176" r="18" fill="none" stroke="rgba(255,255,255,0.5)" stroke-width="1"/>
  <circle cx="697" cy="172" r="5" fill="rgba(255,255,255,0.7)"/>

  <!-- Piece 4 -->
  <rect x="602.5" y="227.5" width="47" height="47" rx="9" fill="url(#redCellGrad)" stroke="#ff5252" stroke-width="2" filter="url(#dropShadow)"/>
  <circle cx="626" cy="251" r="18" fill="url(#redPieceGrad)" filter="url(#glow)"/>
  <circle cx="626" cy="251" r="18" fill="none" stroke="rgba(255,255,255,0.5)" stroke-width="1"/>
  <circle cx="622" cy="247" r="5" fill="rgba(255,255,255,0.7)"/>

  <!-- Yellow pieces (bottom-left home) -->
  <!-- Piece 1 -->
  <rect x="77.5" y="602.5" width="47" height="47" rx="9" fill="url(#yellowCellGrad)" stroke="#FFD700" stroke-width="2" filter="url(#dropShadow)"/>
  <circle cx="101" cy="626" r="18" fill="url(#yellowPieceGrad)" filter="url(#glow)"/>
  <circle cx="101" cy="626" r="18" fill="none" stroke="rgba(255,255,255,0.5)" stroke-width="1"/>
  <circle cx="97" cy="622" r="5" fill="rgba(255,255,255,0.7)"/>

  <!-- Piece 2 -->
  <rect x="152.5" y="527.5" width="47" height="47" rx="9" fill="url(#yellowCellGrad)" stroke="#FFD700" stroke-width="2" filter="url(#dropShadow)"/>
  <circle cx="176" cy="551" r="18" fill="url(#yellowPieceGrad)" filter="url(#glow)"/>
  <circle cx="176" cy="551" r="18" fill="none" stroke="rgba(255,255,255,0.5)" stroke-width="1"/>
  <circle cx="172" cy="547" r="5" fill="rgba(255,255,255,0.7)"/>

  <!-- Piece 3 -->
  <rect x="227.5" y="602.5" width="47" height="47" rx="9" fill="url(#yellowCellGrad)" stroke="#FFD700" stroke-width="2" filter="url(#dropShadow)"/>
  <circle cx="251" cy="626" r="18" fill="url(#yellowPieceGrad)" filter="url(#glow)"/>
  <circle cx="251" cy="626" r="18" fill="none" stroke="rgba(255,255,255,0.5)" stroke-width="1"/>
  <circle cx="247" cy="622" r="5" fill="rgba(255,255,255,0.7)"/>

  <!-- Piece 4 -->
  <rect x="152.5" y="677.5" width="47" height="47" rx="9" fill="url(#yellowCellGrad)" stroke="#FFD700" stroke-width="2" filter="url(#dropShadow)"/>
  <circle cx="176" cy="701" r="18" fill="url(#yellowPieceGrad)" filter="url(#glow)"/>
  <circle cx="176" cy="701" r="18" fill="none" stroke="rgba(255,255,255,0.5)" stroke-width="1"/>
  <circle cx="172" cy="697" r="5" fill="rgba(255,255,255,0.7)"/>

  <!-- Blue pieces (bottom-right home) -->
  <!-- Piece 1 -->
  <rect x="527.5" y="602.5" width="47" height="47" rx="9" fill="url(#blueCellGrad)" stroke="#40c4ff" stroke-width="2" filter="url(#dropShadow)"/>
  <circle cx="551" cy="626" r="18" fill="url(#bluePieceGrad)" filter="url(#glow)"/>
  <circle cx="551" cy="626" r="18" fill="none" stroke="rgba(255,255,255,0.5)" stroke-width="1"/>
  <circle cx="547" cy="622" r="5" fill="rgba(255,255,255,0.7)"/>

  <!-- Piece 2 -->
  <rect x="602.5" y="527.5" width="47" height="47" rx="9" fill="url(#blueCellGrad)" stroke="#40c4ff" stroke-width="2" filter="url(#dropShadow)"/>
  <circle cx="626" cy="551" r="18" fill="url(#bluePieceGrad)" filter="url(#glow)"/>
  <circle cx="626" cy="551" r="18" fill="none" stroke="rgba(255,255,255,0.5)" stroke-width="1"/>
  <circle cx="622" cy="547" r="5" fill="rgba(255,255,255,0.7)"/>

  <!-- Piece 3 -->
  <rect x="677.5" y="602.5" width="47" height="47" rx="9" fill="url(#blueCellGrad)" stroke="#40c4ff" stroke-width="2" filter="url(#dropShadow)"/>
  <circle cx="701" cy="626" r="18" fill="url(#bluePieceGrad)" filter="url(#glow)"/>
  <circle cx="701" cy="626" r="18" fill="none" stroke="rgba(255,255,255,0.5)" stroke-width="1"/>
  <circle cx="697" cy="622" r="5" fill="rgba(255,255,255,0.7)"/>

  <!-- Piece 4 -->
  <rect x="602.5" y="677.5" width="47" height="47" rx="9" fill="url(#blueCellGrad)" stroke="#40c4ff" stroke-width="2" filter="url(#dropShadow)"/>
  <circle cx="626" cy="701" r="18" fill="url(#bluePieceGrad)" filter="url(#glow)"/>
  <circle cx="626" cy="701" r="18" fill="none" stroke="rgba(255,255,255,0.5)" stroke-width="1"/>
  <circle cx="622" cy="697" r="5" fill="rgba(255,255,255,0.7)"/>

  <!-- ===== FINAL OUTER BORDER OVERLAY ===== -->
  <rect x="1" y="1" width="800" height="800" rx="16" fill="none" stroke="url(#borderGrad)" stroke-width="3"/>

  <!-- Corner decorations -->
  <circle cx="20" cy="20" r="6" fill="#FFD700" opacity="0.6"/>
  <circle cx="782" cy="20" r="6" fill="#FFD700" opacity="0.6"/>
  <circle cx="20" cy="782" r="6" fill="#FFD700" opacity="0.6"/>
  <circle cx="782" cy="782" r="6" fill="#FFD700" opacity="0.6"/>

</svg>
